<svg width="553" height="519" viewBox="0 0 553 519" fill="none" xmlns="http://www.w3.org/2000/svg">
<mask id="mask0" mask-type="alpha" maskUnits="userSpaceOnUse" x="0" y="0" width="553" height="519">
<path d="M138.02 494.001C5.82344 416.081 -38.6999 246.901 38.0151 114.001C136.787 -57.1106 474.388 -27.6374 542.015 158.001C612.255 350.81 314.801 598.201 138.02 494.001Z" fill="#FC22A5"/>
</mask>
<g mask="url(#mask0)">
<path d="M1501.21 489V243C1501.21 187.772 1545.99 143 1601.21 143H1765M1501.21 489L1181.24 489.761C1125.92 489.893 1081 445.083 1081 389.762V306C1081 250.772 1036.23 206 981 206H557C501.772 206 457 250.772 457 306V389.82C457 445.021 412.271 489.781 357.07 489.82L201.07 489.93C145.814 489.969 101 445.186 101 389.93V144M1501.21 489V659.5M961 830H1401.21C1456.44 830 1501.21 785.228 1501.21 730V659.5M1501.21 659.5L2159.45 659.058C2206.76 659.026 2245.1 697.45 2244.95 744.765V744.765C2244.81 792.068 2283.12 830.488 2330.42 830.473L2934.72 830.282C2989.94 830.264 3034.69 785.498 3034.69 730.282V150" stroke="#360060" stroke-width="280" stroke-linecap="round" stroke-linejoin="round"/>
</g>
</svg>
